%
M48
M72
T01C0.0118
T02C0.0320
T03C0.0400
T04C0.0500
T05C0.0512
%
T01
X14425Y5218
X15952Y8375
X19574Y8375
X20244Y5383
X37173Y19399
X36976Y14360
X37015Y15816
X29259Y18584
X36976Y13336
X37842Y6840
X36858Y6879
X37960Y16879
X37960Y15186
X37960Y13848
X29259Y16537
X36976Y12352
X37960Y11879
X29259Y14509
X36976Y11368
X37960Y10856
X29259Y12501
X29259Y10454
X37960Y8848
X37960Y9832
X36976Y10344
X36976Y9360
X36976Y8336
X37960Y7848
X37960Y12864
X37212Y17864
X37960Y18486
X38122Y19990
X30952Y22037
X38157Y20895
X33937Y22045
X31937Y22037
X32921Y22037
X29929Y22037
X28944Y22037
X27019Y22041
X21019Y22049
X22019Y22041
X23019Y22017
X24019Y22041
X25019Y22049
X26019Y22049
X20019Y22049
X18590Y21053
X35937Y22021
X34929Y22037
X12173Y19360
X17606Y21997
X16622Y21997
X13594Y22001
X14594Y22017
X15594Y22001
X17212Y14871
X30519Y8336
X27252Y6407
X21385Y10580
X29259Y8375
X23472Y4714
X22960Y3966
X18590Y5383
X15952Y11013
X21661Y11564
X23354Y17549
X23708Y16564
X20338Y13848
X17015Y13848
X17921Y17667
X20047Y16171
T02
X2216Y8348
X2216Y10348
X11952Y9694
X8578Y8620
X4523Y8316
X11952Y6694
X4523Y10316
X8578Y9620
T03
X4795Y5257
X3795Y5257
X2795Y5257
X7448Y4458
X10008Y4458
X15252Y3934
X14252Y3934
X13252Y3934
X14941Y6793
X10008Y6238
X7448Y6238
X19594Y6832
X20252Y3934
X21791Y3470
X40098Y19848
X35082Y18486
X36082Y18486
X36078Y17108
X35078Y17108
X34078Y17108
X33078Y17108
X40098Y13848
X40098Y14848
X40098Y15848
X40098Y16848
X39098Y16848
X26948Y18584
X33082Y18486
X34082Y18486
X40098Y21848
X40098Y20848
X39098Y20848
X33960Y21242
X33937Y22836
X34937Y22836
X35937Y22836
X34960Y21242
X35960Y21242
X39098Y21848
X39098Y22848
X40098Y22848
X39098Y19848
X39098Y18848
X39098Y17848
X40098Y17848
X40098Y18848
X39098Y14848
X39098Y15848
X40098Y12848
X40098Y11848
X40098Y10848
X40098Y9848
X40098Y8848
X40098Y7848
X40098Y6848
X39098Y6848
X35212Y6931
X39098Y7848
X39098Y8848
X26960Y10454
X25960Y10454
X26933Y12501
X26905Y14509
X26937Y16537
X27937Y16537
X27948Y18584
X27905Y14509
X27933Y12501
X25933Y12501
X24960Y10454
X24948Y8407
X21791Y6470
X29141Y6911
X29110Y4883
X34169Y4883
X33169Y4883
X35169Y4883
X39098Y5848
X40098Y5848
X39098Y9848
X39098Y10848
X39098Y11848
X39098Y12848
X39098Y13848
X34212Y6931
X33212Y6931
X31110Y4883
X18799Y9623
X18799Y10623
X27960Y10454
X26948Y8407
X25948Y8407
X27948Y8407
X31141Y6911
X30141Y6911
X30110Y4883
X21791Y4470
X19252Y3934
X18252Y3934
X17252Y3934
X16252Y3934
X15941Y6793
X18799Y12623
X18799Y11623
X10783Y18190
X16574Y19135
X17574Y19135
X18574Y19135
X21791Y5470
X18594Y6832
X24933Y12501
X22047Y15557
X22047Y16557
X28937Y22836
X29937Y22836
X30937Y22836
X31937Y22836
X28960Y21242
X29960Y21242
X30960Y21242
X31960Y21242
X32937Y22836
X32960Y21242
X27019Y21202
X26019Y21202
X25019Y21202
X24019Y21202
X23019Y21202
X22019Y21202
X21019Y21202
X24964Y22856
X23964Y22856
X22964Y22856
X21964Y22856
X20964Y22856
X20019Y21202
X17594Y21163
X16594Y21163
X15594Y21163
X14594Y21163
X13594Y21163
X15582Y22856
X14582Y22856
X13582Y22856
X10720Y20289
X9720Y20289
X8720Y20289
X7720Y20289
X6720Y20289
X5720Y20289
X4720Y20289
X3720Y20289
X3783Y18190
X4783Y18190
X5783Y18190
X6783Y18190
X7783Y18190
X8783Y18190
X9783Y18190
X15913Y15962
X18913Y15962
X17913Y15962
X16913Y15962
X22047Y18557
X22047Y17557
X24948Y18584
X24937Y16537
X25948Y18584
X25937Y16537
X25905Y14509
X24905Y14509
X26964Y22856
X25964Y22856
X19964Y22856
X18582Y22856
X17582Y22856
X16582Y22856
X10685Y22454
X9685Y22454
X8685Y22454
X7685Y22454
X6685Y22454
X5685Y22454
X4685Y22454
X3685Y22454
T04
X2126Y15997
X2157Y13832
T05
X8256Y14529
X9437Y12442
X8256Y12442
X7074Y12442
X9437Y14529
X7074Y14529
M30
